# xmcd CD database file generated by OrangeCD 6.5
#
# Track frame offsets:
#	151
#	12466
#	25117
#	37562
#	39331
#	50430
#	61959
#	78788
#	95229
#	111094
#	131065
#	141600
#	154625
#	163036
#	172353
#	186644
#	201689
#	212960
#	228471
#	242720
#	254297
#	268300
#
# Disc length: 3658 seconds
#
# Revision: 0
# Processed by: cddbd v1.5.2PL0 Copyright (c) Steve Scherf et al.
# Submitted via: OrangeCD 6.5
#
DISCID=4b0e4816
DTITLE=Izaks J.W. - 21 Compositions for the piano (025)
DYEAR=1996
DGENRE=
TTITLE0=Snapshot
TTITLE1=The rah rah boy!!
TTITLE2=Marvellous
TTITLE3=Occident express
TTITLE4=China doll parade
TTITLE5=Eccentric fox
TTITLE6=Poet and peasant
TTITLE7=The pastimer
TTITLE8=Oriental blues
TTITLE9=De sledepaardjes
TTITLE10=Cross word puzzle
TTITLE11=Sax-o-Phobia
TTITLE12=Keep your temper
TTITLE13=Keen kut-ups
TTITLE14=Springende vingers
TTITLE15=Hot fingers
TTITLE16=Snow-flakes
TTITLE17=The charleston
TTITLE18=Louisiana rag
TTITLE19=Twinkles
TTITLE20=Doll dance
TTITLE21=Chopsticks?
EXTD=
EXTT0=
EXTT1=
EXTT2=
EXTT3=
EXTT4=
EXTT5=
EXTT6=
EXTT7=
EXTT8=
EXTT9=
EXTT10=
EXTT11=
EXTT12=
EXTT13=
EXTT14=
EXTT15=
EXTT16=
EXTT17=
EXTT18=
EXTT19=
EXTT20=
EXTT21=
PLAYORDER=
